<svg width="1159" height="1159" xmlns="http://www.w3.org/2000/svg" xmlns:xlink="http://www.w3.org/1999/xlink" xml:space="preserve" overflow="hidden"><defs><linearGradient x1="2343.5" y1="973" x2="2343.5" y2="1592" gradientUnits="userSpaceOnUse" spreadMethod="reflect" id="fill0"><stop offset="0" stop-color="#994343"/><stop offset="0.0434783" stop-color="#984242"/><stop offset="0.0869565" stop-color="#984242"/><stop offset="0.130435" stop-color="#984242"/><stop offset="0.173913" stop-color="#984242"/><stop offset="0.217391" stop-color="#974242"/><stop offset="0.26087" stop-color="#974141"/><stop offset="0.304348" stop-color="#964141"/><stop offset="0.347826" stop-color="#954040"/><stop offset="0.391304" stop-color="#944040"/><stop offset="0.434783" stop-color="#933F3F"/><stop offset="0.478261" stop-color="#923E3E"/><stop offset="0.521739" stop-color="#913E3E"/><stop offset="0.565217" stop-color="#903D3D"/><stop offset="0.608696" stop-color="#8F3C3C"/><stop offset="0.652174" stop-color="#8E3B3B"/><stop offset="0.695652" stop-color="#8C3A3A"/><stop offset="0.73913" stop-color="#8B3939"/><stop offset="0.782609" stop-color="#893838"/><stop offset="0.826087" stop-color="#883737"/><stop offset="0.869565" stop-color="#863636"/><stop offset="0.913043" stop-color="#843535"/><stop offset="0.956522" stop-color="#823434"/><stop offset="1" stop-color="#813333"/></linearGradient><linearGradient x1="2555" y1="753" x2="2555" y2="1372" gradientUnits="userSpaceOnUse" spreadMethod="reflect" id="fill1"><stop offset="0" stop-color="#FAF4F4"/><stop offset="0.0434783" stop-color="#F9F3F3"/><stop offset="0.0869565" stop-color="#F9F3F3"/><stop offset="0.130435" stop-color="#F9F3F3"/><stop offset="0.173913" stop-color="#F9F3F3"/><stop offset="0.217391" stop-color="#F9F2F2"/><stop offset="0.26087" stop-color="#F9F2F2"/><stop offset="0.304348" stop-color="#F8F1F1"/><stop offset="0.347826" stop-color="#F8F0F0"/><stop offset="0.391304" stop-color="#F8EFEF"/><stop offset="0.434783" stop-color="#F7EEEE"/><stop offset="0.478261" stop-color="#F7EDED"/><stop offset="0.521739" stop-color="#F7ECEC"/><stop offset="0.565217" stop-color="#F6EBEB"/><stop offset="0.608696" stop-color="#F6EAEA"/><stop offset="0.652174" stop-color="#F5E9E9"/><stop offset="0.695652" stop-color="#F4E7E7"/><stop offset="0.73913" stop-color="#F4E6E6"/><stop offset="0.782609" stop-color="#F3E4E4"/><stop offset="0.826087" stop-color="#F3E3E3"/><stop offset="0.869565" stop-color="#F2E1E1"/><stop offset="0.913043" stop-color="#F1DFDF"/><stop offset="0.956522" stop-color="#F0DDDD"/><stop offset="1" stop-color="#F0DCDC"/></linearGradient><linearGradient x1="2449" y1="973" x2="2449" y2="1372" gradientUnits="userSpaceOnUse" spreadMethod="reflect" id="fill2"><stop offset="0" stop-color="#DBADAD"/><stop offset="0.0769231" stop-color="#DAACAC"/><stop offset="0.153846" stop-color="#DAACAC"/><stop offset="0.230769" stop-color="#DAACAC"/><stop offset="0.307692" stop-color="#DAABAB"/><stop offset="0.384615" stop-color="#D9AAAA"/><stop offset="0.461538" stop-color="#D9A9A9"/><stop offset="0.538462" stop-color="#D9A8A8"/><stop offset="0.615385" stop-color="#D8A7A7"/><stop offset="0.692308" stop-color="#D7A5A5"/><stop offset="0.769231" stop-color="#D7A4A4"/><stop offset="0.846154" stop-color="#D6A2A2"/><stop offset="0.923077" stop-color="#D5A0A0"/><stop offset="1" stop-color="#D59F9F"/></linearGradient></defs><g transform="translate(-1894 -627)"><path d="M1989 1042.93C1989 1004.31 2020.31 973 2058.93 973L2628.07 973C2666.69 973 2698 1004.31 2698 1042.93L2698 1522.07C2698 1560.69 2666.69 1592 2628.07 1592L2058.93 1592C2020.31 1592 1989 1560.69 1989 1522.07Z" fill="url(#fill0)" fill-rule="evenodd"/><path d="M2403 1611.5 2688.79 1419.83 2688.79 1494.07C2830.53 1440.37 2929.27 1349.44 2959.39 1244.88 3003.21 1396.95 2894.94 1550.48 2688.79 1628.59L2688.79 1702.83Z" fill="#262626" fill-rule="evenodd"/><path d="M2969 1312.14C2969 1109.66 2715.59 945.516 2403 945.516L2403 811C2715.59 811 2969 975.142 2969 1177.62Z" fill="#1F1F1F" fill-rule="evenodd"/><path d="M2200 822.929C2200 784.308 2231.31 753 2269.93 753L2840.07 753C2878.69 753 2910 784.308 2910 822.929L2910 1302.07C2910 1340.69 2878.69 1372 2840.07 1372L2269.93 1372C2231.31 1372 2200 1340.69 2200 1302.07Z" fill="url(#fill1)" fill-rule="evenodd"/><path d="M2200 973 2628.16 973C2666.73 973 2698 1004.32 2698 1042.94L2698 1372 2269.84 1372C2231.27 1372 2200 1340.68 2200 1302.06Z" fill="url(#fill2)" fill-rule="evenodd"/></g></svg>